<svg viewBox="0 0 1920 1004" xmlns="http://www.w3.org/2000/svg" font-family="Inter, 'Segoe UI', Helvetica, Arial, sans-serif">
<rect x="0" y="0" width="1920" height="1004" fill="#FAFAF9"/>
<text x="960.0" y="42" text-anchor="middle" font-size="28" font-weight="700" fill="#111827">codity Job Scheduler &#8212; Entity Relationship Diagram</text>
<text x="960.0" y="68" text-anchor="middle" font-size="14" fill="#6B7280">packages/database/prisma/schema.prisma &#183; PostgreSQL via Prisma</text>
<rect x="24" y="90" width="332" height="694" rx="14" fill="#EEF2FF" fill-opacity="0.35" stroke="#C7D2FE" stroke-width="1.5" stroke-dasharray="4 3"/>
<text x="190.0" y="112" text-anchor="middle" font-size="13.5" font-weight="700" fill="#4338CA" letter-spacing="0.3">IDENTITY &amp; ACCESS</text>
<rect x="384" y="90" width="332" height="518" rx="14" fill="#ECFDF5" fill-opacity="0.35" stroke="#A7F3D0" stroke-width="1.5" stroke-dasharray="4 3"/>
<text x="550.0" y="112" text-anchor="middle" font-size="13.5" font-weight="700" fill="#047857" letter-spacing="0.3">ORGANIZATIONS &amp; PROJECTS</text>
<rect x="744" y="90" width="332" height="444" rx="14" fill="#FFF7ED" fill-opacity="0.35" stroke="#FED7AA" stroke-width="1.5" stroke-dasharray="4 3"/>
<text x="910.0" y="112" text-anchor="middle" font-size="13.5" font-weight="700" fill="#C2410C" letter-spacing="0.3">QUEUE CONFIGURATION</text>
<rect x="1114" y="90" width="372" height="870" rx="14" fill="#FEF2F2" fill-opacity="0.35" stroke="#FECACA" stroke-width="1.5" stroke-dasharray="4 3"/>
<text x="1300.0" y="112" text-anchor="middle" font-size="13.5" font-weight="700" fill="#B91C1C" letter-spacing="0.3">JOB CORE &amp; SCHEDULING</text>
<rect x="1544" y="90" width="332" height="834" rx="14" fill="#F5F3FF" fill-opacity="0.35" stroke="#DDD6FE" stroke-width="1.5" stroke-dasharray="4 3"/>
<text x="1710.0" y="112" text-anchor="middle" font-size="13.5" font-weight="700" fill="#6D28D9" letter-spacing="0.3">WORKERS &amp; OBSERVABILITY</text>
<path d="M 340 174 C 370.0 174, 370.0 336, 400 336" fill="none" stroke="#9CA3AF" stroke-width="1.6"/>
<circle cx="340" cy="174" r="3.2" fill="#4B5563"/>
<polygon points="393,332 393,340 400,336" fill="#4B5563" transform="rotate(180 400 336)"/>
<text x="348" y="168" font-size="10.5" fill="#4B5563" text-anchor="start">1</text>
<text x="392" y="330" font-size="10.5" fill="#4B5563" text-anchor="end">N</text>
<path d="M 550.0 246 L 550.0 269.0 L 550.0 269.0 L 550.0 292" fill="none" stroke="#9CA3AF" stroke-width="1.6"/>
<circle cx="550.0" cy="246" r="3.2" fill="#4B5563"/>
<text x="540.0" y="250" font-size="10.5" fill="#4B5563" text-anchor="end">1</text>
<text x="540.0" y="286" font-size="10.5" fill="#4B5563" text-anchor="end">N</text>
<path d="M 550.0 246 L 550.0 361.0 L 550.0 361.0 L 550.0 476" fill="none" stroke="#9CA3AF" stroke-width="1.6"/>
<circle cx="550.0" cy="246" r="3.2" fill="#4B5563"/>
<text x="540.0" y="250" font-size="10.5" fill="#4B5563" text-anchor="end">1</text>
<text x="540.0" y="470" font-size="10.5" fill="#4B5563" text-anchor="end">N</text>
<path d="M 190.0 334 L 190.0 357.0 L 190.0 357.0 L 190.0 380" fill="none" stroke="#9CA3AF" stroke-width="1.6"/>
<circle cx="190.0" cy="334" r="3.2" fill="#4B5563"/>
<text x="180.0" y="338" font-size="10.5" fill="#4B5563" text-anchor="end">1</text>
<text x="180.0" y="374" font-size="10.5" fill="#4B5563" text-anchor="end">N</text>
<path d="M 190.0 334 L 190.0 460.0 L 190.0 460.0 L 190.0 586" fill="none" stroke="#9CA3AF" stroke-width="1.6"/>
<circle cx="190.0" cy="334" r="3.2" fill="#4B5563"/>
<text x="180.0" y="338" font-size="10.5" fill="#4B5563" text-anchor="end">1</text>
<text x="180.0" y="580" font-size="10.5" fill="#4B5563" text-anchor="end">N</text>
<path d="M 700 520 C 730.0 520, 730.0 174, 760 174" fill="none" stroke="#9CA3AF" stroke-width="1.6"/>
<circle cx="700" cy="520" r="3.2" fill="#4B5563"/>
<polygon points="753,170 753,178 760,174" fill="#4B5563" transform="rotate(180 760 174)"/>
<text x="708" y="514" font-size="10.5" fill="#4B5563" text-anchor="start">1</text>
<text x="752" y="168" font-size="10.5" fill="#4B5563" text-anchor="end">N</text>
<path d="M 700 520 C 915.0 520, 915.0 424, 1130 424" fill="none" stroke="#9CA3AF" stroke-width="1.6"/>
<circle cx="700" cy="520" r="3.2" fill="#4B5563"/>
<polygon points="1123,420 1123,428 1130,424" fill="#4B5563" transform="rotate(180 1130 424)"/>
<text x="708" y="514" font-size="10.5" fill="#4B5563" text-anchor="start">1</text>
<text x="1122" y="418" font-size="10.5" fill="#4B5563" text-anchor="end">N</text>
<path d="M 700 520 C 915.0 520, 915.0 174, 1130 174" fill="none" stroke="#9CA3AF" stroke-width="1.6"/>
<circle cx="700" cy="520" r="3.2" fill="#4B5563"/>
<polygon points="1123,170 1123,178 1130,174" fill="#4B5563" transform="rotate(180 1130 174)"/>
<text x="708" y="514" font-size="10.5" fill="#4B5563" text-anchor="start">1</text>
<text x="1122" y="168" font-size="10.5" fill="#4B5563" text-anchor="end">N</text>
<path d="M 1060 174 C 1095.0 174, 1095.0 424, 1130 424" fill="none" stroke="#9CA3AF" stroke-width="1.6"/>
<circle cx="1060" cy="174" r="3.2" fill="#4B5563"/>
<polygon points="1123,420 1123,428 1130,424" fill="#4B5563" transform="rotate(180 1130 424)"/>
<text x="1068" y="168" font-size="10.5" fill="#4B5563" text-anchor="start">1</text>
<text x="1122" y="418" font-size="10.5" fill="#4B5563" text-anchor="end">N</text>
<path d="M 1060 174 C 1095.0 174, 1095.0 174, 1130 174" fill="none" stroke="#9CA3AF" stroke-width="1.6"/>
<circle cx="1060" cy="174" r="3.2" fill="#4B5563"/>
<polygon points="1123,170 1123,178 1130,174" fill="#4B5563" transform="rotate(180 1130 174)"/>
<text x="1068" y="168" font-size="10.5" fill="#4B5563" text-anchor="start">1</text>
<text x="1122" y="168" font-size="10.5" fill="#4B5563" text-anchor="end">N</text>
<path d="M 1060 174 C 1095.0 174, 1095.0 806, 1130 806" fill="none" stroke="#9CA3AF" stroke-width="1.6"/>
<circle cx="1060" cy="174" r="3.2" fill="#4B5563"/>
<polygon points="1123,802 1123,810 1130,806" fill="#4B5563" transform="rotate(180 1130 806)"/>
<text x="1068" y="168" font-size="10.5" fill="#4B5563" text-anchor="start">1</text>
<text x="1122" y="800" font-size="10.5" fill="#4B5563" text-anchor="end">N</text>
<path d="M 1060 380 C 1095.0 380, 1095.0 424, 1130 424" fill="none" stroke="#9CA3AF" stroke-width="1.6"/>
<circle cx="1060" cy="380" r="3.2" fill="#4B5563"/>
<polygon points="1123,420 1123,428 1130,424" fill="#4B5563" transform="rotate(180 1130 424)"/>
<text x="1068" y="374" font-size="10.5" fill="#4B5563" text-anchor="start">1</text>
<text x="1122" y="418" font-size="10.5" fill="#4B5563" text-anchor="end">N</text>
<path d="M 1300.0 334 L 1300.0 357.0 L 1300.0 357.0 L 1300.0 380" fill="none" stroke="#9CA3AF" stroke-width="1.6"/>
<circle cx="1300.0" cy="334" r="3.2" fill="#4B5563"/>
<text x="1290.0" y="338" font-size="10.5" fill="#4B5563" text-anchor="end">1</text>
<text x="1290.0" y="374" font-size="10.5" fill="#4B5563" text-anchor="end">N</text>
<path d="M 1470 424 C 1515.0 424, 1515.0 380, 1560 380" fill="none" stroke="#9CA3AF" stroke-width="1.6"/>
<circle cx="1470" cy="424" r="3.2" fill="#4B5563"/>
<polygon points="1553,376 1553,384 1560,380" fill="#4B5563" transform="rotate(180 1560 380)"/>
<text x="1478" y="418" font-size="10.5" fill="#4B5563" text-anchor="start">1</text>
<text x="1552" y="374" font-size="10.5" fill="#4B5563" text-anchor="end">N</text>
<path d="M 1470 424 C 1515.0 424, 1515.0 792, 1560 792" fill="none" stroke="#9CA3AF" stroke-width="1.6"/>
<circle cx="1470" cy="424" r="3.2" fill="#4B5563"/>
<polygon points="1553,788 1553,796 1560,792" fill="#4B5563" transform="rotate(180 1560 792)"/>
<text x="1478" y="418" font-size="10.5" fill="#4B5563" text-anchor="start">1</text>
<text x="1552" y="786" font-size="10.5" fill="#4B5563" text-anchor="end">N</text>
<path d="M 1300.0 716 L 1300.0 739.0 L 1300.0 739.0 L 1300.0 762" fill="none" stroke="#9CA3AF" stroke-width="1.6"/>
<circle cx="1300.0" cy="716" r="3.2" fill="#4B5563"/>
<text x="1290.0" y="720" font-size="10.5" fill="#4B5563" text-anchor="end">1</text>
<text x="1290.0" y="756" font-size="10.5" fill="#4B5563" text-anchor="end">1</text>
<path d="M 1560 174 C 1515.0 174, 1515.0 424, 1470 424" fill="none" stroke="#9CA3AF" stroke-width="1.6"/>
<circle cx="1560" cy="174" r="3.2" fill="#4B5563"/>
<polygon points="1463,420 1463,428 1470,424" fill="#4B5563" transform=""/>
<text x="1552" y="168" font-size="10.5" fill="#4B5563" text-anchor="end">1</text>
<text x="1478" y="418" font-size="10.5" fill="#4B5563" text-anchor="start">N</text>
<path d="M 1710.0 290 L 1710.0 313.0 L 1710.0 313.0 L 1710.0 336" fill="none" stroke="#9CA3AF" stroke-width="1.6"/>
<circle cx="1710.0" cy="290" r="3.2" fill="#4B5563"/>
<text x="1700.0" y="294" font-size="10.5" fill="#4B5563" text-anchor="end">1</text>
<text x="1700.0" y="330" font-size="10.5" fill="#4B5563" text-anchor="end">N</text>
<path d="M 1710.0 290 L 1710.0 416.0 L 1710.0 416.0 L 1710.0 542" fill="none" stroke="#9CA3AF" stroke-width="1.6"/>
<circle cx="1710.0" cy="290" r="3.2" fill="#4B5563"/>
<text x="1700.0" y="294" font-size="10.5" fill="#4B5563" text-anchor="end">1</text>
<text x="1700.0" y="536" font-size="10.5" fill="#4B5563" text-anchor="end">N</text>
<path d="M 1470 420 C 1530 420, 1530 450, 1470 450" fill="none" stroke="#B91C1C" stroke-width="1.6" stroke-dasharray="3 2"/>
<circle cx="1470" cy="420" r="3" fill="#B91C1C"/>
<polygon points="1464,446 1464,454 1470,450" fill="#B91C1C"/>
<text x="1538" y="439.0" font-size="10" fill="#B91C1C">parentJobId → childJobs (workflow dependency)</text>
<g>
<rect x="40" y="130" width="300" height="204" rx="10" fill="white" stroke="#C7D2FE" stroke-width="1.4"/>
<path d="M 40 152 L 40 140 Q 40 130 50 130 L 330 130 Q 340 130 340 140 L 340 152 Z" fill="#4338CA"/>
<rect x="40" y="160" width="300" height="2" fill="#4338CA"/>
<text x="54" y="151.0" font-size="15" font-weight="700" fill="white">User</text>
<text x="54" y="184" font-size="12.5" font-family="'JetBrains Mono', 'SF Mono', Consolas, monospace" font-weight="700" fill="#4338CA">id</text>
<text x="326" y="184" font-size="10" font-family="'JetBrains Mono', 'SF Mono', Consolas, monospace" font-weight="700" fill="#4338CA" text-anchor="end">PK</text>
<text x="54" y="206" font-size="12.5" font-family="'JetBrains Mono', 'SF Mono', Consolas, monospace" font-weight="400" fill="#1D4ED8">email</text>
<text x="326" y="206" font-size="10" font-family="'JetBrains Mono', 'SF Mono', Consolas, monospace" font-weight="700" fill="#1D4ED8" text-anchor="end">UQ</text>
<text x="54" y="228" font-size="12.5" font-family="'JetBrains Mono', 'SF Mono', Consolas, monospace" font-weight="400" fill="#374151">passwordHash</text>
<text x="54" y="250" font-size="12.5" font-family="'JetBrains Mono', 'SF Mono', Consolas, monospace" font-weight="400" fill="#374151">firstName</text>
<text x="54" y="272" font-size="12.5" font-family="'JetBrains Mono', 'SF Mono', Consolas, monospace" font-weight="400" fill="#374151">lastName</text>
<text x="54" y="294" font-size="12.5" font-family="'JetBrains Mono', 'SF Mono', Consolas, monospace" font-weight="400" fill="#374151">role</text>
<text x="54" y="316" font-size="12.5" font-family="'JetBrains Mono', 'SF Mono', Consolas, monospace" font-weight="400" fill="#374151">createdAt</text>
</g>
<g>
<rect x="40" y="380" width="300" height="160" rx="10" fill="white" stroke="#C7D2FE" stroke-width="1.4"/>
<path d="M 40 402 L 40 390 Q 40 380 50 380 L 330 380 Q 340 380 340 390 L 340 402 Z" fill="#4338CA"/>
<rect x="40" y="410" width="300" height="2" fill="#4338CA"/>
<text x="54" y="401.0" font-size="15" font-weight="700" fill="white">RefreshToken</text>
<text x="54" y="434" font-size="12.5" font-family="'JetBrains Mono', 'SF Mono', Consolas, monospace" font-weight="700" fill="#4338CA">id</text>
<text x="326" y="434" font-size="10" font-family="'JetBrains Mono', 'SF Mono', Consolas, monospace" font-weight="700" fill="#4338CA" text-anchor="end">PK</text>
<text x="54" y="456" font-size="12.5" font-family="'JetBrains Mono', 'SF Mono', Consolas, monospace" font-weight="400" fill="#92400E">userId</text>
<text x="326" y="456" font-size="10" font-family="'JetBrains Mono', 'SF Mono', Consolas, monospace" font-weight="700" fill="#92400E" text-anchor="end">FK</text>
<text x="54" y="478" font-size="12.5" font-family="'JetBrains Mono', 'SF Mono', Consolas, monospace" font-weight="400" fill="#1D4ED8">token</text>
<text x="326" y="478" font-size="10" font-family="'JetBrains Mono', 'SF Mono', Consolas, monospace" font-weight="700" fill="#1D4ED8" text-anchor="end">UQ</text>
<text x="54" y="500" font-size="12.5" font-family="'JetBrains Mono', 'SF Mono', Consolas, monospace" font-weight="400" fill="#374151">expiresAt</text>
<text x="54" y="522" font-size="12.5" font-family="'JetBrains Mono', 'SF Mono', Consolas, monospace" font-weight="400" fill="#374151">revokedAt</text>
</g>
<g>
<rect x="40" y="586" width="300" height="182" rx="10" fill="white" stroke="#C7D2FE" stroke-width="1.4"/>
<path d="M 40 608 L 40 596 Q 40 586 50 586 L 330 586 Q 340 586 340 596 L 340 608 Z" fill="#4338CA"/>
<rect x="40" y="616" width="300" height="2" fill="#4338CA"/>
<text x="54" y="607.0" font-size="15" font-weight="700" fill="white">AuditLog</text>
<text x="54" y="640" font-size="12.5" font-family="'JetBrains Mono', 'SF Mono', Consolas, monospace" font-weight="700" fill="#4338CA">id</text>
<text x="326" y="640" font-size="10" font-family="'JetBrains Mono', 'SF Mono', Consolas, monospace" font-weight="700" fill="#4338CA" text-anchor="end">PK</text>
<text x="54" y="662" font-size="12.5" font-family="'JetBrains Mono', 'SF Mono', Consolas, monospace" font-weight="400" fill="#92400E">userId</text>
<text x="326" y="662" font-size="10" font-family="'JetBrains Mono', 'SF Mono', Consolas, monospace" font-weight="700" fill="#92400E" text-anchor="end">FK</text>
<text x="54" y="684" font-size="12.5" font-family="'JetBrains Mono', 'SF Mono', Consolas, monospace" font-weight="400" fill="#374151">action</text>
<text x="54" y="706" font-size="12.5" font-family="'JetBrains Mono', 'SF Mono', Consolas, monospace" font-weight="400" fill="#374151">resource</text>
<text x="54" y="728" font-size="12.5" font-family="'JetBrains Mono', 'SF Mono', Consolas, monospace" font-weight="400" fill="#374151">resourceId</text>
<text x="54" y="750" font-size="12.5" font-family="'JetBrains Mono', 'SF Mono', Consolas, monospace" font-weight="400" fill="#374151">timestamp</text>
</g>
<g>
<rect x="400" y="130" width="300" height="116" rx="10" fill="white" stroke="#A7F3D0" stroke-width="1.4"/>
<path d="M 400 152 L 400 140 Q 400 130 410 130 L 690 130 Q 700 130 700 140 L 700 152 Z" fill="#047857"/>
<rect x="400" y="160" width="300" height="2" fill="#047857"/>
<text x="414" y="151.0" font-size="15" font-weight="700" fill="white">Organization</text>
<text x="414" y="184" font-size="12.5" font-family="'JetBrains Mono', 'SF Mono', Consolas, monospace" font-weight="700" fill="#047857">id</text>
<text x="686" y="184" font-size="10" font-family="'JetBrains Mono', 'SF Mono', Consolas, monospace" font-weight="700" fill="#047857" text-anchor="end">PK</text>
<text x="414" y="206" font-size="12.5" font-family="'JetBrains Mono', 'SF Mono', Consolas, monospace" font-weight="400" fill="#374151">name</text>
<text x="414" y="228" font-size="12.5" font-family="'JetBrains Mono', 'SF Mono', Consolas, monospace" font-weight="400" fill="#374151">createdAt</text>
</g>
<g>
<rect x="400" y="292" width="300" height="138" rx="10" fill="white" stroke="#A7F3D0" stroke-width="1.4"/>
<path d="M 400 314 L 400 302 Q 400 292 410 292 L 690 292 Q 700 292 700 302 L 700 314 Z" fill="#047857"/>
<rect x="400" y="322" width="300" height="2" fill="#047857"/>
<text x="414" y="313.0" font-size="15" font-weight="700" fill="white">OrgMember</text>
<text x="414" y="346" font-size="12.5" font-family="'JetBrains Mono', 'SF Mono', Consolas, monospace" font-weight="700" fill="#047857">id</text>
<text x="686" y="346" font-size="10" font-family="'JetBrains Mono', 'SF Mono', Consolas, monospace" font-weight="700" fill="#047857" text-anchor="end">PK</text>
<text x="414" y="368" font-size="12.5" font-family="'JetBrains Mono', 'SF Mono', Consolas, monospace" font-weight="400" fill="#92400E">organizationId</text>
<text x="686" y="368" font-size="10" font-family="'JetBrains Mono', 'SF Mono', Consolas, monospace" font-weight="700" fill="#92400E" text-anchor="end">FK</text>
<text x="414" y="390" font-size="12.5" font-family="'JetBrains Mono', 'SF Mono', Consolas, monospace" font-weight="400" fill="#92400E">userId</text>
<text x="686" y="390" font-size="10" font-family="'JetBrains Mono', 'SF Mono', Consolas, monospace" font-weight="700" fill="#92400E" text-anchor="end">FK</text>
<text x="414" y="412" font-size="12.5" font-family="'JetBrains Mono', 'SF Mono', Consolas, monospace" font-weight="400" fill="#374151">role</text>
</g>
<g>
<rect x="400" y="476" width="300" height="116" rx="10" fill="white" stroke="#A7F3D0" stroke-width="1.4"/>
<path d="M 400 498 L 400 486 Q 400 476 410 476 L 690 476 Q 700 476 700 486 L 700 498 Z" fill="#047857"/>
<rect x="400" y="506" width="300" height="2" fill="#047857"/>
<text x="414" y="497.0" font-size="15" font-weight="700" fill="white">Project</text>
<text x="414" y="530" font-size="12.5" font-family="'JetBrains Mono', 'SF Mono', Consolas, monospace" font-weight="700" fill="#047857">id</text>
<text x="686" y="530" font-size="10" font-family="'JetBrains Mono', 'SF Mono', Consolas, monospace" font-weight="700" fill="#047857" text-anchor="end">PK</text>
<text x="414" y="552" font-size="12.5" font-family="'JetBrains Mono', 'SF Mono', Consolas, monospace" font-weight="400" fill="#374151">name</text>
<text x="414" y="574" font-size="12.5" font-family="'JetBrains Mono', 'SF Mono', Consolas, monospace" font-weight="400" fill="#92400E">organizationId</text>
<text x="686" y="574" font-size="10" font-family="'JetBrains Mono', 'SF Mono', Consolas, monospace" font-weight="700" fill="#92400E" text-anchor="end">FK</text>
</g>
<g>
<rect x="760" y="130" width="300" height="160" rx="10" fill="white" stroke="#FED7AA" stroke-width="1.4"/>
<path d="M 760 152 L 760 140 Q 760 130 770 130 L 1050 130 Q 1060 130 1060 140 L 1060 152 Z" fill="#C2410C"/>
<rect x="760" y="160" width="300" height="2" fill="#C2410C"/>
<text x="774" y="151.0" font-size="15" font-weight="700" fill="white">Queue</text>
<text x="774" y="184" font-size="12.5" font-family="'JetBrains Mono', 'SF Mono', Consolas, monospace" font-weight="700" fill="#C2410C">id</text>
<text x="1046" y="184" font-size="10" font-family="'JetBrains Mono', 'SF Mono', Consolas, monospace" font-weight="700" fill="#C2410C" text-anchor="end">PK</text>
<text x="774" y="206" font-size="12.5" font-family="'JetBrains Mono', 'SF Mono', Consolas, monospace" font-weight="400" fill="#374151">name</text>
<text x="774" y="228" font-size="12.5" font-family="'JetBrains Mono', 'SF Mono', Consolas, monospace" font-weight="400" fill="#92400E">projectId</text>
<text x="1046" y="228" font-size="10" font-family="'JetBrains Mono', 'SF Mono', Consolas, monospace" font-weight="700" fill="#92400E" text-anchor="end">FK</text>
<text x="774" y="250" font-size="12.5" font-family="'JetBrains Mono', 'SF Mono', Consolas, monospace" font-weight="400" fill="#374151">concurrencyLimit</text>
<text x="774" y="272" font-size="12.5" font-family="'JetBrains Mono', 'SF Mono', Consolas, monospace" font-weight="400" fill="#374151">isPaused</text>
</g>
<g>
<rect x="760" y="336" width="300" height="182" rx="10" fill="white" stroke="#FED7AA" stroke-width="1.4"/>
<path d="M 760 358 L 760 346 Q 760 336 770 336 L 1050 336 Q 1060 336 1060 346 L 1060 358 Z" fill="#C2410C"/>
<rect x="760" y="366" width="300" height="2" fill="#C2410C"/>
<text x="774" y="357.0" font-size="15" font-weight="700" fill="white">RetryPolicy</text>
<text x="774" y="390" font-size="12.5" font-family="'JetBrains Mono', 'SF Mono', Consolas, monospace" font-weight="700" fill="#C2410C">id</text>
<text x="1046" y="390" font-size="10" font-family="'JetBrains Mono', 'SF Mono', Consolas, monospace" font-weight="700" fill="#C2410C" text-anchor="end">PK</text>
<text x="774" y="412" font-size="12.5" font-family="'JetBrains Mono', 'SF Mono', Consolas, monospace" font-weight="400" fill="#1D4ED8">name</text>
<text x="1046" y="412" font-size="10" font-family="'JetBrains Mono', 'SF Mono', Consolas, monospace" font-weight="700" fill="#1D4ED8" text-anchor="end">UQ</text>
<text x="774" y="434" font-size="12.5" font-family="'JetBrains Mono', 'SF Mono', Consolas, monospace" font-weight="400" fill="#374151">type</text>
<text x="774" y="456" font-size="12.5" font-family="'JetBrains Mono', 'SF Mono', Consolas, monospace" font-weight="400" fill="#374151">delayMs</text>
<text x="774" y="478" font-size="12.5" font-family="'JetBrains Mono', 'SF Mono', Consolas, monospace" font-weight="400" fill="#374151">backoffFactor</text>
<text x="774" y="500" font-size="12.5" font-family="'JetBrains Mono', 'SF Mono', Consolas, monospace" font-weight="400" fill="#374151">maxAttempts</text>
</g>
<g>
<rect x="1130" y="130" width="340" height="204" rx="10" fill="white" stroke="#FECACA" stroke-width="1.4"/>
<path d="M 1130 152 L 1130 140 Q 1130 130 1140 130 L 1460 130 Q 1470 130 1470 140 L 1470 152 Z" fill="#B91C1C"/>
<rect x="1130" y="160" width="340" height="2" fill="#B91C1C"/>
<text x="1144" y="151.0" font-size="15" font-weight="700" fill="white">ScheduledJob</text>
<text x="1144" y="184" font-size="12.5" font-family="'JetBrains Mono', 'SF Mono', Consolas, monospace" font-weight="700" fill="#B91C1C">id</text>
<text x="1456" y="184" font-size="10" font-family="'JetBrains Mono', 'SF Mono', Consolas, monospace" font-weight="700" fill="#B91C1C" text-anchor="end">PK</text>
<text x="1144" y="206" font-size="12.5" font-family="'JetBrains Mono', 'SF Mono', Consolas, monospace" font-weight="400" fill="#92400E">projectId</text>
<text x="1456" y="206" font-size="10" font-family="'JetBrains Mono', 'SF Mono', Consolas, monospace" font-weight="700" fill="#92400E" text-anchor="end">FK</text>
<text x="1144" y="228" font-size="12.5" font-family="'JetBrains Mono', 'SF Mono', Consolas, monospace" font-weight="400" fill="#92400E">queueId</text>
<text x="1456" y="228" font-size="10" font-family="'JetBrains Mono', 'SF Mono', Consolas, monospace" font-weight="700" fill="#92400E" text-anchor="end">FK</text>
<text x="1144" y="250" font-size="12.5" font-family="'JetBrains Mono', 'SF Mono', Consolas, monospace" font-weight="400" fill="#374151">cronExpression</text>
<text x="1144" y="272" font-size="12.5" font-family="'JetBrains Mono', 'SF Mono', Consolas, monospace" font-weight="400" fill="#374151">timezone</text>
<text x="1144" y="294" font-size="12.5" font-family="'JetBrains Mono', 'SF Mono', Consolas, monospace" font-weight="400" fill="#374151">nextRunAt</text>
<text x="1144" y="316" font-size="12.5" font-family="'JetBrains Mono', 'SF Mono', Consolas, monospace" font-weight="400" fill="#374151">isActive</text>
</g>
<g>
<rect x="1130" y="380" width="340" height="336" rx="10" fill="white" stroke="#FECACA" stroke-width="1.4"/>
<path d="M 1130 402 L 1130 390 Q 1130 380 1140 380 L 1460 380 Q 1470 380 1470 390 L 1470 402 Z" fill="#B91C1C"/>
<rect x="1130" y="410" width="340" height="2" fill="#B91C1C"/>
<text x="1144" y="401.0" font-size="15" font-weight="700" fill="white">Job</text>
<text x="1144" y="434" font-size="12.5" font-family="'JetBrains Mono', 'SF Mono', Consolas, monospace" font-weight="700" fill="#B91C1C">id</text>
<text x="1456" y="434" font-size="10" font-family="'JetBrains Mono', 'SF Mono', Consolas, monospace" font-weight="700" fill="#B91C1C" text-anchor="end">PK</text>
<text x="1144" y="456" font-size="12.5" font-family="'JetBrains Mono', 'SF Mono', Consolas, monospace" font-weight="400" fill="#92400E">projectId</text>
<text x="1456" y="456" font-size="10" font-family="'JetBrains Mono', 'SF Mono', Consolas, monospace" font-weight="700" fill="#92400E" text-anchor="end">FK</text>
<text x="1144" y="478" font-size="12.5" font-family="'JetBrains Mono', 'SF Mono', Consolas, monospace" font-weight="400" fill="#92400E">queueId</text>
<text x="1456" y="478" font-size="10" font-family="'JetBrains Mono', 'SF Mono', Consolas, monospace" font-weight="700" fill="#92400E" text-anchor="end">FK</text>
<text x="1144" y="500" font-size="12.5" font-family="'JetBrains Mono', 'SF Mono', Consolas, monospace" font-weight="400" fill="#374151">name</text>
<text x="1144" y="522" font-size="12.5" font-family="'JetBrains Mono', 'SF Mono', Consolas, monospace" font-weight="400" fill="#374151">status</text>
<text x="1144" y="544" font-size="12.5" font-family="'JetBrains Mono', 'SF Mono', Consolas, monospace" font-weight="400" fill="#374151">priority</text>
<text x="1144" y="566" font-size="12.5" font-family="'JetBrains Mono', 'SF Mono', Consolas, monospace" font-weight="400" fill="#374151">attemptsMade</text>
<text x="1144" y="588" font-size="12.5" font-family="'JetBrains Mono', 'SF Mono', Consolas, monospace" font-weight="400" fill="#374151">maxAttempts</text>
<text x="1144" y="610" font-size="12.5" font-family="'JetBrains Mono', 'SF Mono', Consolas, monospace" font-weight="400" fill="#374151">nextRunAt</text>
<text x="1144" y="632" font-size="12.5" font-family="'JetBrains Mono', 'SF Mono', Consolas, monospace" font-weight="400" fill="#92400E">scheduledJobId</text>
<text x="1456" y="632" font-size="10" font-family="'JetBrains Mono', 'SF Mono', Consolas, monospace" font-weight="700" fill="#92400E" text-anchor="end">FK</text>
<text x="1144" y="654" font-size="12.5" font-family="'JetBrains Mono', 'SF Mono', Consolas, monospace" font-weight="400" fill="#92400E">parentJobId</text>
<text x="1456" y="654" font-size="10" font-family="'JetBrains Mono', 'SF Mono', Consolas, monospace" font-weight="700" fill="#92400E" text-anchor="end">FK</text>
<text x="1144" y="676" font-size="12.5" font-family="'JetBrains Mono', 'SF Mono', Consolas, monospace" font-weight="400" fill="#92400E">retryPolicyId</text>
<text x="1456" y="676" font-size="10" font-family="'JetBrains Mono', 'SF Mono', Consolas, monospace" font-weight="700" fill="#92400E" text-anchor="end">FK</text>
<text x="1144" y="698" font-size="12.5" font-family="'JetBrains Mono', 'SF Mono', Consolas, monospace" font-weight="400" fill="#92400E">workerId</text>
<text x="1456" y="698" font-size="10" font-family="'JetBrains Mono', 'SF Mono', Consolas, monospace" font-weight="700" fill="#92400E" text-anchor="end">FK</text>
</g>
<g>
<rect x="1130" y="762" width="340" height="182" rx="10" fill="white" stroke="#FECACA" stroke-width="1.4"/>
<path d="M 1130 784 L 1130 772 Q 1130 762 1140 762 L 1460 762 Q 1470 762 1470 772 L 1470 784 Z" fill="#B91C1C"/>
<rect x="1130" y="792" width="340" height="2" fill="#B91C1C"/>
<text x="1144" y="783.0" font-size="15" font-weight="700" fill="white">DeadLetterQueue</text>
<text x="1144" y="816" font-size="12.5" font-family="'JetBrains Mono', 'SF Mono', Consolas, monospace" font-weight="700" fill="#B91C1C">id</text>
<text x="1456" y="816" font-size="10" font-family="'JetBrains Mono', 'SF Mono', Consolas, monospace" font-weight="700" fill="#B91C1C" text-anchor="end">PK</text>
<text x="1144" y="838" font-size="12.5" font-family="'JetBrains Mono', 'SF Mono', Consolas, monospace" font-weight="400" fill="#92400E">jobId</text>
<text x="1456" y="838" font-size="10" font-family="'JetBrains Mono', 'SF Mono', Consolas, monospace" font-weight="700" fill="#92400E" text-anchor="end">FK,UQ</text>
<text x="1144" y="860" font-size="12.5" font-family="'JetBrains Mono', 'SF Mono', Consolas, monospace" font-weight="400" fill="#92400E">queueId</text>
<text x="1456" y="860" font-size="10" font-family="'JetBrains Mono', 'SF Mono', Consolas, monospace" font-weight="700" fill="#92400E" text-anchor="end">FK</text>
<text x="1144" y="882" font-size="12.5" font-family="'JetBrains Mono', 'SF Mono', Consolas, monospace" font-weight="400" fill="#374151">failureReason</text>
<text x="1144" y="904" font-size="12.5" font-family="'JetBrains Mono', 'SF Mono', Consolas, monospace" font-weight="400" fill="#374151">retryCount</text>
<text x="1144" y="926" font-size="12.5" font-family="'JetBrains Mono', 'SF Mono', Consolas, monospace" font-weight="400" fill="#374151">status</text>
</g>
<g>
<rect x="1560" y="130" width="300" height="160" rx="10" fill="white" stroke="#DDD6FE" stroke-width="1.4"/>
<path d="M 1560 152 L 1560 140 Q 1560 130 1570 130 L 1850 130 Q 1860 130 1860 140 L 1860 152 Z" fill="#6D28D9"/>
<rect x="1560" y="160" width="300" height="2" fill="#6D28D9"/>
<text x="1574" y="151.0" font-size="15" font-weight="700" fill="white">Worker</text>
<text x="1574" y="184" font-size="12.5" font-family="'JetBrains Mono', 'SF Mono', Consolas, monospace" font-weight="700" fill="#6D28D9">id</text>
<text x="1846" y="184" font-size="10" font-family="'JetBrains Mono', 'SF Mono', Consolas, monospace" font-weight="700" fill="#6D28D9" text-anchor="end">PK</text>
<text x="1574" y="206" font-size="12.5" font-family="'JetBrains Mono', 'SF Mono', Consolas, monospace" font-weight="400" fill="#1D4ED8">name</text>
<text x="1846" y="206" font-size="10" font-family="'JetBrains Mono', 'SF Mono', Consolas, monospace" font-weight="700" fill="#1D4ED8" text-anchor="end">UQ</text>
<text x="1574" y="228" font-size="12.5" font-family="'JetBrains Mono', 'SF Mono', Consolas, monospace" font-weight="400" fill="#374151">hostname</text>
<text x="1574" y="250" font-size="12.5" font-family="'JetBrains Mono', 'SF Mono', Consolas, monospace" font-weight="400" fill="#374151">concurrency</text>
<text x="1574" y="272" font-size="12.5" font-family="'JetBrains Mono', 'SF Mono', Consolas, monospace" font-weight="400" fill="#374151">status</text>
</g>
<g>
<rect x="1560" y="336" width="300" height="160" rx="10" fill="white" stroke="#DDD6FE" stroke-width="1.4"/>
<path d="M 1560 358 L 1560 346 Q 1560 336 1570 336 L 1850 336 Q 1860 336 1860 346 L 1860 358 Z" fill="#6D28D9"/>
<rect x="1560" y="366" width="300" height="2" fill="#6D28D9"/>
<text x="1574" y="357.0" font-size="15" font-weight="700" fill="white">JobExecution</text>
<text x="1574" y="390" font-size="12.5" font-family="'JetBrains Mono', 'SF Mono', Consolas, monospace" font-weight="700" fill="#6D28D9">id</text>
<text x="1846" y="390" font-size="10" font-family="'JetBrains Mono', 'SF Mono', Consolas, monospace" font-weight="700" fill="#6D28D9" text-anchor="end">PK</text>
<text x="1574" y="412" font-size="12.5" font-family="'JetBrains Mono', 'SF Mono', Consolas, monospace" font-weight="400" fill="#92400E">jobId</text>
<text x="1846" y="412" font-size="10" font-family="'JetBrains Mono', 'SF Mono', Consolas, monospace" font-weight="700" fill="#92400E" text-anchor="end">FK</text>
<text x="1574" y="434" font-size="12.5" font-family="'JetBrains Mono', 'SF Mono', Consolas, monospace" font-weight="400" fill="#92400E">workerId</text>
<text x="1846" y="434" font-size="10" font-family="'JetBrains Mono', 'SF Mono', Consolas, monospace" font-weight="700" fill="#92400E" text-anchor="end">FK</text>
<text x="1574" y="456" font-size="12.5" font-family="'JetBrains Mono', 'SF Mono', Consolas, monospace" font-weight="400" fill="#374151">status</text>
<text x="1574" y="478" font-size="12.5" font-family="'JetBrains Mono', 'SF Mono', Consolas, monospace" font-weight="400" fill="#374151">durationMs</text>
</g>
<g>
<rect x="1560" y="542" width="300" height="160" rx="10" fill="white" stroke="#DDD6FE" stroke-width="1.4"/>
<path d="M 1560 564 L 1560 552 Q 1560 542 1570 542 L 1850 542 Q 1860 542 1860 552 L 1860 564 Z" fill="#6D28D9"/>
<rect x="1560" y="572" width="300" height="2" fill="#6D28D9"/>
<text x="1574" y="563.0" font-size="15" font-weight="700" fill="white">WorkerHeartbeat</text>
<text x="1574" y="596" font-size="12.5" font-family="'JetBrains Mono', 'SF Mono', Consolas, monospace" font-weight="700" fill="#6D28D9">id</text>
<text x="1846" y="596" font-size="10" font-family="'JetBrains Mono', 'SF Mono', Consolas, monospace" font-weight="700" fill="#6D28D9" text-anchor="end">PK</text>
<text x="1574" y="618" font-size="12.5" font-family="'JetBrains Mono', 'SF Mono', Consolas, monospace" font-weight="400" fill="#92400E">workerId</text>
<text x="1846" y="618" font-size="10" font-family="'JetBrains Mono', 'SF Mono', Consolas, monospace" font-weight="700" fill="#92400E" text-anchor="end">FK</text>
<text x="1574" y="640" font-size="12.5" font-family="'JetBrains Mono', 'SF Mono', Consolas, monospace" font-weight="400" fill="#374151">loadPercentage</text>
<text x="1574" y="662" font-size="12.5" font-family="'JetBrains Mono', 'SF Mono', Consolas, monospace" font-weight="400" fill="#374151">runningJobsCount</text>
<text x="1574" y="684" font-size="12.5" font-family="'JetBrains Mono', 'SF Mono', Consolas, monospace" font-weight="400" fill="#374151">timestamp</text>
</g>
<g>
<rect x="1560" y="748" width="300" height="160" rx="10" fill="white" stroke="#DDD6FE" stroke-width="1.4"/>
<path d="M 1560 770 L 1560 758 Q 1560 748 1570 748 L 1850 748 Q 1860 748 1860 758 L 1860 770 Z" fill="#6D28D9"/>
<rect x="1560" y="778" width="300" height="2" fill="#6D28D9"/>
<text x="1574" y="769.0" font-size="15" font-weight="700" fill="white">JobLog</text>
<text x="1574" y="802" font-size="12.5" font-family="'JetBrains Mono', 'SF Mono', Consolas, monospace" font-weight="700" fill="#6D28D9">id</text>
<text x="1846" y="802" font-size="10" font-family="'JetBrains Mono', 'SF Mono', Consolas, monospace" font-weight="700" fill="#6D28D9" text-anchor="end">PK</text>
<text x="1574" y="824" font-size="12.5" font-family="'JetBrains Mono', 'SF Mono', Consolas, monospace" font-weight="400" fill="#92400E">jobId</text>
<text x="1846" y="824" font-size="10" font-family="'JetBrains Mono', 'SF Mono', Consolas, monospace" font-weight="700" fill="#92400E" text-anchor="end">FK</text>
<text x="1574" y="846" font-size="12.5" font-family="'JetBrains Mono', 'SF Mono', Consolas, monospace" font-weight="400" fill="#374151">level</text>
<text x="1574" y="868" font-size="12.5" font-family="'JetBrains Mono', 'SF Mono', Consolas, monospace" font-weight="400" fill="#374151">message</text>
<text x="1574" y="890" font-size="12.5" font-family="'JetBrains Mono', 'SF Mono', Consolas, monospace" font-weight="400" fill="#374151">timestamp</text>
</g>
<text x="40" y="974" font-size="11.5" fill="#6B7280">Legend:</text>
<text x="102" y="974" font-size="11" font-family="'JetBrains Mono', 'SF Mono', Consolas, monospace" font-weight="700" fill="#111827">PK</text>
<text x="130" y="974" font-size="11" fill="#6B7280">primary key</text>
<text x="224.2" y="974" font-size="11" font-family="'JetBrains Mono', 'SF Mono', Consolas, monospace" font-weight="700" fill="#92400E">FK</text>
<text x="252.2" y="974" font-size="11" fill="#6B7280">foreign key</text>
<text x="346.4" y="974" font-size="11" font-family="'JetBrains Mono', 'SF Mono', Consolas, monospace" font-weight="700" fill="#1D4ED8">UQ</text>
<text x="374.4" y="974" font-size="11" fill="#6B7280">unique</text>
<text x="437.59999999999997" y="974" font-size="11" fill="#6B7280">&#8226; lines: 1&#8212;N relationship, arrow points to the "many" side &#183; dashed = self-relation</text>
</svg>